# xmcd
#
# Track frame offsets:
#	150
#	14321
#	27934
#	44654
#	60706
#	76464
#	89534
#	99775
#	116899
#	134344
#	146174
#	158617
#	175937
#	187836
#	200975
#	227451
#
# Disc length: 3428 seconds
#
# Revision: 0
# Processed by: cddbd v1.5PL3 Copyright (c) Steve Scherf et al.
# Submitted via: dBpowerAMP V4.0
#
DISCID=d80d6210
DTITLE=Erin Hay - Honky Tonk Heaven
DYEAR=1900
DGENRE=Country
TTITLE0=Honky Tonk Heaven
TTITLE1=Poison Of Your Kiss
TTITLE2=Autumn's Not That Cold
TTITLE3=My Hands Are Full
TTITLE4=If The Phone Don't Ring
TTITLE5=I Got The Blues Again
TTITLE6=Alone With You
TTITLE7=Mirror! Mirror! (On The Wall)
TTITLE8=Somebody's Angel
TTITLE9=You're The Stuff (Country Songs Are Made Of)
TTITLE10=I'd Be In Memphis
TTITLE11=Here Comes Trouble
TTITLE12=It's A Fact
TTITLE13=Before You Turn To A Memory
TTITLE14=Goodbye Ireland
TTITLE15=DATA
EXTD=
EXTT0=
EXTT1=
EXTT2=
EXTT3=
EXTT4=
EXTT5=
EXTT6=
EXTT7=
EXTT8=
EXTT9=
EXTT10=
EXTT11=
EXTT12=
EXTT13=
EXTT14=
EXTT15=
PLAYORDER=
